<?xml version="1.0" encoding="utf-8"?>
<!-- Generator: Adobe Illustrator 21.1.0, SVG Export Plug-In . SVG Version: 6.00 Build 0)  -->
<svg version="1.1" id="Layer_1" xmlns="http://www.w3.org/2000/svg" xmlns:xlink="http://www.w3.org/1999/xlink" x="0px" y="0px"
	 viewBox="0 0 1117.4 524.1" style="enable-background:new 0 0 1117.4 524.1;" xml:space="preserve">
<style type="text/css">
	.st0{fill:#4CA0E8;}
	.st1{fill:#E5624C;}
</style>
<g>
	<path class="st0" d="M404.4,396.6h-327c-6.6,0-12-3.2-12-7V203c0-3.9,5.4-7,12-7h327c6.6,0,12,3.2,12,7v186.6
		C416.4,393.4,411,396.6,404.4,396.6z"/>
</g>
<g>
	<path class="st0" d="M725.4,396.6h-327c-6.6,0-12-3.2-12-7V203c0-3.9,5.4-7,12-7h327c6.6,0,12,3.2,12,7v186.6
		C737.4,393.4,732,396.6,725.4,396.6z"/>
</g>
<path class="st0" d="M615.9,188c-0.2-46.4-31.2-84-69.5-84s-69.3,37.6-69.5,84H615.9z"/>
<path class="st0" d="M316.9,188c-0.2-46.4-31.2-84-69.5-84s-69.3,37.6-69.5,84H316.9z"/>
<g>
	<path class="st0" d="M1046.4,396.6h-327c-6.6,0-12-3.2-12-7V203c0-3.9,5.4-7,12-7h327c6.6,0,12,3.2,12,7v186.6
		C1058.4,393.4,1053,396.6,1046.4,396.6z"/>
</g>
<path class="st0" d="M936.9,188c-0.2-46.4-31.2-84-69.5-84s-69.3,37.6-69.5,84H936.9z"/>
<circle class="st1" cx="867.4" cy="157" r="39"/>
<circle class="st1" cx="546.4" cy="157" r="39"/>
<circle class="st1" cx="247.4" cy="157" r="39"/>
</svg>
