<?xml version="1.0" encoding="utf-8"?>
<!-- Generator: Adobe Illustrator 21.1.0, SVG Export Plug-In . SVG Version: 6.00 Build 0)  -->
<svg version="1.1" id="Layer_1" xmlns="http://www.w3.org/2000/svg" xmlns:xlink="http://www.w3.org/1999/xlink" x="0px" y="0px"
	 viewBox="0 0 1366 768" style="enable-background:new 0 0 1366 768;" xml:space="preserve">
<style type="text/css">
	.st0{fill:#4CA0E8;}
</style>
<g>
	<path class="st0" d="M798,536H471c-6.6,0-12-5.4-12-12V205c0-6.6,5.4-12,12-12h327c6.6,0,12,5.4,12,12v319
		C810,530.6,804.6,536,798,536z"/>
</g>
<path class="st0" d="M451,296c-46.4,0.2-84,31.2-84,69.5s37.6,69.3,84,69.5V296z"/>
<path class="st0" d="M819,296c46.4,0.2,84,31.2,84,69.5s-37.6,69.3-84,69.5V296z"/>
<path class="st0" d="M704.5,185c-0.2-46.4-31.2-84-69.5-84s-69.3,37.6-69.5,84H704.5z"/>
<path class="st0" d="M711.5,544c-0.2,46.4-31.2,84-69.5,84s-69.3-37.6-69.5-84H711.5z"/>
</svg>
