<?xml version="1.0" encoding="utf-8"?>
<!-- Generator: Adobe Illustrator 21.1.0, SVG Export Plug-In . SVG Version: 6.00 Build 0)  -->
<svg version="1.1" id="Layer_1" xmlns="http://www.w3.org/2000/svg" xmlns:xlink="http://www.w3.org/1999/xlink" x="0px" y="0px"
	 viewBox="0 0 1366 768" style="enable-background:new 0 0 1366 768;" xml:space="preserve">
<style type="text/css">
	.st0{fill:#4CA0E8;}
	.st1{fill:#E5624C;}
</style>
<g>
	<path class="st0" d="M515,539H188c-6.6,0-12-5.4-12-12V208c0-6.6,5.4-12,12-12h327c6.6,0,12,5.4,12,12v319
		C527,533.6,521.6,539,515,539z"/>
</g>
<g>
	<path class="st0" d="M836,539H509c-6.6,0-12-5.4-12-12V208c0-6.6,5.4-12,12-12h327c6.6,0,12,5.4,12,12v319
		C848,533.6,842.6,539,836,539z"/>
</g>
<path class="st0" d="M168,303c-46.4,0.2-84,31.2-84,69.5s37.6,69.3,84,69.5V303z"/>
<path class="st0" d="M857,302c46.4,0.2,84,31.2,84,69.5s-37.6,69.3-84,69.5V302z"/>
<path class="st0" d="M726.5,188c-0.2-46.4-31.2-84-69.5-84s-69.3,37.6-69.5,84H726.5z"/>
<path class="st0" d="M733.5,547c-0.2,46.4-31.2,84-69.5,84s-69.3-37.6-69.5-84H733.5z"/>
<circle class="st1" cx="887" cy="370" r="39"/>
<path class="st0" d="M427.5,188c-0.2-46.4-31.2-84-69.5-84s-69.3,37.6-69.5,84H427.5z"/>
<path class="st0" d="M434.5,547c-0.2,46.4-31.2,84-69.5,84s-69.3-37.6-69.5-84H434.5z"/>
<g>
	<path class="st0" d="M1157,539H830c-6.6,0-12-5.4-12-12V208c0-6.6,5.4-12,12-12h327c6.6,0,12,5.4,12,12v319
		C1169,533.6,1163.6,539,1157,539z"/>
</g>
<path class="st0" d="M1178,302c46.4,0.2,84,31.2,84,69.5s-37.6,69.3-84,69.5V302z"/>
<path class="st0" d="M1047.5,188c-0.2-46.4-31.2-84-69.5-84s-69.3,37.6-69.5,84H1047.5z"/>
<path class="st0" d="M1054.5,547c-0.2,46.4-31.2,84-69.5,84s-69.3-37.6-69.5-84H1054.5z"/>
</svg>
